<svg width="32" height="32" viewBox="0 0 32 32" fill="none" xmlns="http://www.w3.org/2000/svg">
<g clip-path="url(#clip0_42_10)">
<path d="M15.9999 16V0H0.00585938V32H16.0059C24.8399 32 31.9999 24.834 31.9999 16H15.9999Z" fill="url(#paint0_linear_42_10)"/>
<path d="M16 16H32C32 7.166 24.84 0 16 0V16Z" fill="url(#paint1_linear_42_10)"/>
<path d="M16.825 31.975C17.0588 31.9625 17.2922 31.9438 17.525 31.919C17.562 31.913 17.599 31.913 17.637 31.913C17.831 31.893 18.024 31.863 18.217 31.838C18.2899 31.8265 18.3633 31.8182 18.437 31.813C18.605 31.788 18.767 31.756 18.93 31.725C19.03 31.706 19.13 31.694 19.224 31.675C19.404 31.638 19.58 31.594 19.754 31.55L19.998 31.494C20.205 31.438 20.411 31.381 20.617 31.319L20.754 31.282C20.948 31.219 21.142 31.15 21.335 31.082L21.498 31.025C22.1978 30.7697 22.8785 30.4649 23.535 30.113C23.565 30.095 23.597 30.082 23.622 30.07C24.053 29.832 24.472 29.582 24.878 29.307C24.896 29.295 24.922 29.282 24.94 29.27C26.6291 28.1284 28.0857 26.6759 29.232 24.99C29.245 24.978 29.252 24.965 29.264 24.947C29.9762 23.8916 30.5591 22.7544 31 21.56C31.0057 21.5403 31.0141 21.5214 31.025 21.504C31.188 21.06 31.325 20.604 31.45 20.148C31.463 20.098 31.482 20.055 31.494 20.005C31.825 18.724 32 17.387 32 16.006H16V0C7.166 0 0 7.16 0 16C0 24.84 7.166 32 16 32C16.181 32 16.362 31.994 16.537 31.988C16.637 31.981 16.731 31.981 16.825 31.975Z" fill="url(#paint2_linear_42_10)"/>
</g>
<defs>
<linearGradient id="paint0_linear_42_10" x1="16.0029" y1="31.295" x2="16.0029" y2="0.955001" gradientUnits="userSpaceOnUse">
<stop stop-color="#006CFF"/>
<stop offset="1" stop-color="#07BFE8"/>
</linearGradient>
<linearGradient id="paint1_linear_42_10" x1="15.971" y1="16.032" x2="28.401" y2="3.603" gradientUnits="userSpaceOnUse">
<stop stop-color="#0049AD"/>
<stop offset="1" stop-color="#006CFF"/>
</linearGradient>
<linearGradient id="paint2_linear_42_10" x1="1" y1="2" x2="31" y2="39.5" gradientUnits="userSpaceOnUse">
<stop stop-color="#006CFF"/>
<stop offset="0.167" stop-color="#006CFF"/>
<stop offset="0.45" stop-color="#41B3B3"/>
<stop offset="0.681" stop-color="#44A958"/>
<stop offset="1" stop-color="#60CA12"/>
</linearGradient>
<clipPath id="clip0_42_10">
<rect width="32" height="32" fill="white"/>
</clipPath>
</defs>
</svg>
